# File created by Blade
# Date/Time:  Thu Sep 25 17:43:48 2014
# Frame Rate: 120.000 fps
#------------------------------------------------------
:FULLY-SPECIFIED
:DEGREES
398
root -20.587970 32.968529 -6.017117 -353.986935 15.089710 -1.248239
Spine -2.295997 9.675730 0.373608
Head 15.387962 21.736484 9.529578
LeftShoulder -16.770388 18.414725 27.645909
LeftArm 23.336430 -23.391809 -21.807362
LeftForeArm 9.199312 -0.000000 15.413470
LeftHand -29.582133 -0.000000 3.051631
LeftHandThumb1 -26.253704 0.000000 33.147579
RightShoulder -17.627930 12.694449 -39.630854
RightArm -12.612591 6.552336 32.589304
RightForeArm -28.557738 -0.000000 21.216260
RightHand -14.932811 -0.000000 -0.333066
RightHandThumb1 -24.326973 -0.000000 -32.862282
LeftUpLeg -4.065144 -11.763117 1.514830
LeftLeg -1.930903 -0.000000 0.000000
LeftFoot -14.515679 15.355556 335.290680
LeftToeBase 3.377157 -0.000000 -0.000000
RightUpLeg -5.888170 -11.337471 4.068033
RightLeg 5.943071 -0.000000 -0.000000
RightFoot -10.304129 -4.830539 -4.716591
RightToeBase 1.883037 -0.000000 -0.000000
399
root -20.549205 32.970620 -6.013352 -353.996624 15.045528 -1.238531
Spine -2.244062 9.663133 0.384843
Head 15.609048 21.735606 9.626205
LeftShoulder -16.892263 18.472242 27.652669
LeftArm 23.329839 -23.082415 -21.856977
LeftForeArm 8.812385 -0.000000 14.997604
LeftHand -29.588206 -0.000000 2.754478
LeftHandThumb1 -26.253704 0.000000 33.147579
RightShoulder -17.634200 12.749172 -39.594516
RightArm -12.413281 6.242393 32.558274
RightForeArm -28.257133 0.000000 20.866892
RightHand -14.898112 -0.000000 -0.077111
RightHandThumb1 -24.326973 -0.000000 -32.862282
LeftUpLeg -4.060894 -11.733528 1.423565
LeftLeg -1.857261 -0.000000 0.000000
LeftFoot -14.484663 15.349431 335.481349
LeftToeBase 3.630668 -0.000000 -0.000000
RightUpLeg -5.694887 -11.396947 3.999225
RightLeg 5.626855 -0.000000 -0.000000
RightFoot -10.193242 -4.753538 -4.733687
RightToeBase 1.955040 -0.000000 -0.000000
400
root -20.509801 32.969707 -6.012768 -353.964241 15.059791 -1.190987
Spine -2.229904 9.623588 0.340679
Head 15.767204 21.681506 9.744294
LeftShoulder -16.956957 18.547467 27.703923
LeftArm 23.329242 -22.799776 -21.937142
LeftForeArm 8.385727 0.000000 14.550729
LeftHand -29.361342 -0.000000 2.506948
LeftHandThumb1 -26.253704 0.000000 33.147579
RightShoulder -17.608957 12.948353 -39.669038
RightArm -12.418796 6.044775 32.592033
RightForeArm -28.187773 0.000000 20.540342
RightHand -15.106732 -0.000000 0.235942
RightHandThumb1 -24.326973 -0.000000 -32.862282
LeftUpLeg -4.097065 -11.789643 1.310156
LeftLeg -1.801709 -0.000000 0.000000
LeftFoot -14.451917 15.373339 335.583683
LeftToeBase 3.963041 -0.000000 -0.000000
RightUpLeg -5.550378 -11.504139 3.912465
RightLeg 5.323336 -0.000000 -0.000000
RightFoot -10.097634 -4.783136 -4.931533
RightToeBase 1.846582 -0.000000 -0.000000
401
root -20.474705 32.969051 -6.012152 -353.946093 15.089178 -1.168118
Spine -2.182109 9.588624 0.336363
Head 15.901256 21.658936 9.801218
LeftShoulder -17.022988 18.542402 27.718001
LeftArm 23.323055 -22.606131 -22.027456
LeftForeArm 8.209444 -0.000000 14.152719
LeftHand -28.947347 -0.000000 1.911988
LeftHandThumb1 -26.253704 0.000000 33.147579
RightShoulder -17.750865 13.070344 -39.752531
RightArm -12.234310 5.842166 32.661576
RightForeArm -28.059715 -0.000000 20.209796
RightHand -15.139696 -0.000000 0.549983
RightHandThumb1 -24.326973 -0.000000 -32.862282
LeftUpLeg -4.119891 -11.862822 1.227404
LeftLeg -1.738424 -0.000000 0.000000
LeftFoot -14.253815 15.406786 336.001755
LeftToeBase 3.849339 -0.000000 -0.000000
RightUpLeg -5.451728 -11.739574 3.858446
RightLeg 5.117559 -0.000000 -0.000000
RightFoot -10.060960 -4.801046 -4.979150
RightToeBase 1.884929 -0.000000 -0.000000
402
root -20.437875 32.966036 -6.012090 -353.909515 15.126147 -1.106796
Spine -2.157364 9.525527 0.268683
Head 16.027395 21.552693 9.921577
LeftShoulder -17.099021 18.554438 27.753792
LeftArm 23.351928 -22.373088 -22.111206
LeftForeArm 8.165043 -0.000000 13.713050
LeftHand -28.716732 0.000000 1.483939
LeftHandThumb1 -26.253704 0.000000 33.147579
RightShoulder -17.794522 12.955219 -39.717467
RightArm -11.980017 5.880253 32.738184
RightForeArm -28.100698 -0.000000 19.870989
RightHand -15.161496 -0.000000 0.782254
RightHandThumb1 -24.326973 -0.000000 -32.862282
LeftUpLeg -4.143732 -11.871484 1.103363
LeftLeg -1.713194 -0.000000 0.000000
LeftFoot -14.157595 15.389886 336.179048
LeftToeBase 4.047790 -0.000000 -0.000000
RightUpLeg -5.454295 -12.146249 3.797618
RightLeg 5.059950 -0.000000 -0.000000
RightFoot -10.064401 -4.601068 -5.235092
RightToeBase 1.866711 -0.000000 -0.000000
403
root -20.405799 32.962193 -6.012826 -353.877729 15.192925 -1.078139
Spine -2.125296 9.438487 0.243505
Head 16.166472 21.510189 10.056219
LeftShoulder -17.151110 18.552723 27.776249
LeftArm 23.355946 -22.177704 -22.194418
LeftForeArm 8.063925 0.000000 13.357860
LeftHand -28.623212 0.000000 1.319308
LeftHandThumb1 -26.253704 0.000000 33.147579
RightShoulder -17.858169 12.966320 -39.730159
RightArm -11.816024 5.829143 32.799860
RightForeArm -28.008847 -0.000000 19.568331
RightHand -15.143860 -0.000000 0.895195
RightHandThumb1 -24.326973 -0.000000 -32.862282
LeftUpLeg -4.172231 -11.803358 1.019572
LeftLeg -1.724504 -0.000000 0.000000
LeftFoot -14.201277 15.312281 336.071783
LeftToeBase 4.631934 -0.000000 -0.000000
RightUpLeg -5.393109 -12.401077 3.743543
RightLeg 4.902216 -0.000000 -0.000000
RightFoot -10.041494 -4.472200 -5.330448
RightToeBase 1.954993 -0.000000 -0.000000
404
root -20.377399 32.957623 -6.014333 -353.853776 15.252602 -1.055509
Spine -2.053480 9.361847 0.212859
Head 16.228545 21.451219 10.158186
LeftShoulder -17.185503 18.536324 27.795275
LeftArm 23.266442 -22.196252 -22.356320
LeftForeArm 8.062855 0.000000 13.194822
LeftHand -28.521656 -0.000000 0.947727
LeftHandThumb1 -26.253704 0.000000 33.147579
RightShoulder -17.922467 12.977498 -39.709338
RightArm -11.741933 5.768372 32.835205
RightForeArm -27.895605 -0.000000 19.440628
RightHand -15.178236 -0.000000 1.025083
RightHandThumb1 -24.326973 -0.000000 -32.862282
LeftUpLeg -4.184532 -11.743860 0.946122
LeftLeg -1.727713 -0.000000 0.000000
LeftFoot -14.185654 15.176135 336.105162
LeftToeBase 4.887931 -0.000000 -0.000000
RightUpLeg -5.333354 -12.550014 3.687242
RightLeg 4.782780 -0.000000 -0.000000
RightFoot -10.044342 -4.521950 -5.440451
RightToeBase 2.038146 -0.000000 -0.000000
405
root -20.346932 32.952863 -6.016393 -353.818469 15.320072 -1.029564
Spine -1.985961 9.281411 0.196910
Head 16.284855 21.404744 10.245260
LeftShoulder -17.224868 18.568793 27.787154
LeftArm 23.189156 -22.204202 -22.519095
LeftForeArm 7.985539 -0.000000 13.109120
LeftHand -28.517267 0.000000 0.859844
LeftHandThumb1 -26.253704 0.000000 33.147579
RightShoulder -18.000975 12.899020 -39.672709
RightArm -11.596518 5.793969 32.864771
RightForeArm -27.824992 -0.000000 19.299278
RightHand -15.244913 -0.000000 1.194030
RightHandThumb1 -24.326973 -0.000000 -32.862282
LeftUpLeg -4.202322 -11.681614 0.869127
LeftLeg -1.743812 -0.000000 0.000000
LeftFoot -14.093082 15.062360 336.283688
LeftToeBase 4.910363 -0.000000 -0.000000
RightUpLeg -5.317831 -12.797823 3.631493
RightLeg 4.704380 -0.000000 -0.000000
RightFoot -10.068372 -4.383658 -5.498939
RightToeBase 2.056548 -0.000000 -0.000000
406
root -20.323025 32.948836 -6.017848 -353.804018 15.364621 -1.037933
Spine -1.899801 9.215180 0.212910
Head 16.324688 21.365039 10.269476
LeftShoulder -17.286018 18.660936 27.751749
LeftArm 23.136852 -22.441695 -22.774276
LeftForeArm 8.071331 0.000000 13.131349
LeftHand -28.288004 -0.000000 0.553135
LeftHandThumb1 -26.253704 0.000000 33.147579
RightShoulder -18.070117 12.847715 -39.645882
RightArm -11.489865 5.883448 32.904058
RightForeArm -27.801799 -0.000000 19.206987
RightHand -15.424944 -0.000000 1.305644
RightHandThumb1 -24.326973 -0.000000 -32.862282
LeftUpLeg -4.180413 -11.681430 0.842458
LeftLeg -1.815486 -0.000000 0.000000
LeftFoot -14.056427 15.011717 336.321289
LeftToeBase 5.017429 -0.000000 -0.000000
RightUpLeg -5.308498 -12.985333 3.617796
RightLeg 4.657967 -0.000000 -0.000000
RightFoot -10.081056 -4.277621 -5.532049
RightToeBase 1.995794 -0.000000 -0.000000
407
root -20.294018 32.944844 -6.021323 -353.779606 15.397230 -1.012936
Spine -1.799160 9.217085 0.194670
Head 16.365441 21.255808 10.333545
LeftShoulder -17.278936 18.622461 27.694591
LeftArm 23.005393 -22.327507 -22.780312
LeftForeArm 7.848307 -0.000000 13.139629
LeftHand -28.343115 -0.000000 0.672009
LeftHandThumb1 -26.253704 0.000000 33.147579
RightShoulder -18.068565 12.907720 -39.633770
RightArm -11.650065 5.856189 32.877089
RightForeArm -27.708978 -0.000000 19.174974
RightHand -15.489736 0.000000 1.332509
RightHandThumb1 -24.326973 -0.000000 -32.862282
LeftUpLeg -4.159172 -11.722147 0.777534
LeftLeg -1.887245 -0.000000 0.000000
LeftFoot -14.038315 15.003581 336.317310
LeftToeBase 5.148037 -0.000000 -0.000000
RightUpLeg -5.312044 -13.151751 3.564089
RightLeg 4.633857 -0.000000 -0.000000
RightFoot -10.104163 -4.205534 -5.616666
RightToeBase 2.092598 -0.000000 -0.000000
408
root -20.271257 32.940717 -6.028526 -353.759109 15.412789 -1.044459
Spine -1.682628 9.266048 0.222211
Head 16.383236 21.156072 10.444299
LeftShoulder -17.302900 18.554927 27.684133
LeftArm 23.004188 -22.347433 -22.951487
LeftForeArm 7.830981 -0.000000 13.151647
LeftHand -28.385935 -0.000000 0.829191
LeftHandThumb1 -26.253704 0.000000 33.147579
RightShoulder -18.138713 12.765077 -39.646049
RightArm -11.507753 5.629580 33.024753
RightForeArm -27.341887 -0.000000 18.785831
RightHand -15.455317 -0.000000 0.810503
RightHandThumb1 -24.326973 -0.000000 -32.862282
LeftUpLeg -4.167434 -11.698544 0.776794
LeftLeg -1.934047 -0.000000 0.000000
LeftFoot -14.044651 14.935915 336.291054
LeftToeBase 5.289327 -0.000000 -0.000000
RightUpLeg -5.382769 -13.243260 3.565438
RightLeg 4.686641 -0.000000 -0.000000
RightFoot -10.090169 -4.048439 -5.610490
RightToeBase 2.021588 -0.000000 -0.000000
